<svg xmlns="http://www.w3.org/2000/svg" xmlns:xlink="http://www.w3.org/1999/xlink" viewBox="0 0 340.18 213.48"><defs><style>.cls-1{opacity:0.5;}.cls-2{fill:#f79863;}.cls-10,.cls-3,.cls-4,.cls-6,.cls-7,.cls-8{fill:none;stroke-opacity:0.5;}.cls-3{stroke:url(#linear-gradient);}.cls-4{stroke:url(#linear-gradient-2);}.cls-5{fill:#16a39b;}.cls-6{stroke:url(#linear-gradient-3);}.cls-7{stroke:url(#linear-gradient-4);}.cls-8{stroke:url(#linear-gradient-5);}.cls-9{fill:#b44a3b;}.cls-10{stroke:url(#linear-gradient-6);}</style><linearGradient id="linear-gradient" x1="13.57" y1="59.92" x2="39.38" y2="34.03" gradientTransform="matrix(1, 0, 0, -1, -8.36, 239.06)" gradientUnits="userSpaceOnUse"><stop offset="0" stop-color="#16a39b"/><stop offset="0.72" stop-color="#de8756"/><stop offset="1" stop-color="#fff"/></linearGradient><linearGradient id="linear-gradient-2" x1="305.63" y1="155.9" x2="338.18" y2="123.25" xlink:href="#linear-gradient"/><linearGradient id="linear-gradient-3" x1="197.57" y1="233.92" x2="223.38" y2="208.03" xlink:href="#linear-gradient"/><linearGradient id="linear-gradient-4" x1="32.59" y1="191.88" x2="46.94" y2="177.49" xlink:href="#linear-gradient"/><linearGradient id="linear-gradient-5" x1="335.36" y1="48.71" x2="330.22" y2="29.54" xlink:href="#linear-gradient"/><linearGradient id="linear-gradient-6" x1="81.59" y1="174.88" x2="95.94" y2="160.49" xlink:href="#linear-gradient"/></defs><g id="Layer_2" data-name="Layer 2"><g id="Layer_1-2" data-name="Layer 1"><g class="cls-1"><path class="cls-2" d="M25.07,199.06l13.16-3.43-11.35-7,1.2-13.49L17.61,184l-12.4-4.88,4.84,12.42L1.17,202l13.5-1.16,6.93,11.37Z"/><path class="cls-3" d="M25.07,199.06l13.16-3.43-11.35-7,1.2-13.49L17.61,184l-12.4-4.88,4.84,12.42L1.17,202l13.5-1.16,6.93,11.37Z"/></g><g class="cls-1"><path class="cls-2" d="M322.31,108.28,338.92,104,324.6,95.18l1.51-17-13.2,11.16-15.64-6.15,6.1,15.66L292.18,112l17-1.45L318,124.88Z"/><path class="cls-4" d="M322.31,108.28,338.92,104,324.6,95.18l1.51-17-13.2,11.16-15.64-6.15,6.1,15.66L292.18,112l17-1.45L318,124.88Z"/></g><g class="cls-1"><path class="cls-5" d="M209.07,25.06l13.16-3.43-11.35-7,1.2-13.49L201.61,10l-12.4-4.88,4.84,12.42L185.17,28l13.5-1.16,6.93,11.37Z"/><path class="cls-6" d="M209.07,25.06l13.16-3.43-11.35-7,1.2-13.49L201.61,10l-12.4-4.88,4.84,12.42L185.17,28l13.5-1.16,6.93,11.37Z"/></g><g class="cls-1"><path class="cls-5" d="M35.27,58.25l7.32-1.9-6.31-3.88.66-7.5-5.82,4.92-6.89-2.71,2.69,6.9L22,59.89l7.5-.65,3.85,6.32Z"/><path class="cls-7" d="M35.27,58.25l7.32-1.9-6.31-3.88.66-7.5-5.82,4.92-6.89-2.71,2.69,6.9L22,59.89l7.5-.65,3.85,6.32Z"/></g><g class="cls-1"><path class="cls-5" d="M323.05,205.1l5.19,5.25.18-7.22,6.66-3.11-7-2.51L327,190.36,322.48,196l-7.32-1.33,4.22,6-3.45,6.36Z"/><path class="cls-8" d="M323.05,205.1l5.19,5.25.18-7.22,6.66-3.11-7-2.51L327,190.36,322.48,196l-7.32-1.33,4.22,6-3.45,6.36Z"/></g><g class="cls-1"><path class="cls-9" d="M84.27,75.25l7.32-1.9-6.31-3.88.66-7.5-5.82,4.92-6.89-2.71,2.69,6.9L71,76.89l7.5-.65,3.85,6.32Z"/><path class="cls-10" d="M84.27,75.25l7.32-1.9-6.31-3.88.66-7.5-5.82,4.92-6.89-2.71,2.69,6.9L71,76.89l7.5-.65,3.85,6.32Z"/></g></g></g></svg>