<svg xmlns="http://www.w3.org/2000/svg" viewBox="0 0 210 210"><defs><style>.cls-1{fill:#eaf6f5;stroke:#fff;stroke-width:5px;}.cls-2{opacity:0.5;}.cls-3{fill:#dbdada;fill-rule:evenodd;}</style></defs><g id="Layer_2" data-name="Layer 2"><g id="Layer_1-2" data-name="Layer 1"><path class="cls-1" d="M105,2.5h0A102.5,102.5,0,0,1,207.5,105h0A102.5,102.5,0,0,1,105,207.5h0A102.5,102.5,0,0,1,2.5,105h0A102.5,102.5,0,0,1,105,2.5Z"/><g class="cls-2"><path class="cls-3" d="M105.5,46a4.49,4.49,0,0,0-4.5,4.5V101H50.5a4.5,4.5,0,0,0,0,9H101v50.5a4.5,4.5,0,0,0,9,0V110h50.5a4.5,4.5,0,0,0,0-9H110V50.5A4.49,4.49,0,0,0,105.5,46Z"/></g></g></g></svg>