<svg width="46" height="41" viewBox="0 0 46 41" fill="none" xmlns="http://www.w3.org/2000/svg">
<path d="M45.1865 6.24032L39.2083 0.980235C39.0233 0.818183 38.7807 0.734561 38.5399 0.752439C38.2944 0.768586 38.0668 0.881043 37.9072 1.06386L16.2202 25.7691L8.50866 15.5534C8.36057 15.3597 8.14219 15.2311 7.90133 15.197C7.65817 15.1613 7.4127 15.2265 7.21679 15.3752L0.867467 20.1757C0.460083 20.4842 0.378836 21.0632 0.687112 21.4687L14.9646 40.3827C15.1311 40.6036 15.3898 40.7385 15.6664 40.7501H15.7004C15.966 40.7501 16.2178 40.6353 16.3936 40.4346L45.2695 7.54251C45.6071 7.15958 45.5691 6.57596 45.1865 6.24032Z" fill="#F79762"/>
</svg>
