<svg width="60" height="54" viewBox="0 0 60 54" fill="none" xmlns="http://www.w3.org/2000/svg">
<g clip-path="url(#clip0)">
<path d="M24.799 27.8866C24.799 23.4625 24.799 19.0934 24.799 14.6952C30.6458 14.6952 36.4636 14.6952 42.3687 14.6952C42.3687 14.9377 42.3687 15.1641 42.3687 15.3937C42.3687 18.3334 42.3687 21.2699 42.3687 24.2096C42.3687 25.9592 42.7896 26.3828 44.5216 26.3828C45.7065 26.3861 46.8914 26.3925 48.0764 26.399C48.1087 26.399 48.1443 26.4281 48.2059 26.4604C48.2059 32.2558 48.2059 38.064 48.2059 43.9078C44.5184 43.9078 40.8568 43.9078 37.1499 43.9078C38.5517 39.7909 38.2021 35.894 35.5182 32.4207C32.8376 28.9571 29.1857 27.5503 24.799 27.8866Z" fill="#1AA39B"/>
<path d="M5.44545 39.4126C4.70731 35.0823 3.9724 30.7779 3.22778 26.4087C9.0099 25.4127 14.7532 24.4198 20.558 23.4205C20.7781 24.643 20.9659 25.8234 21.2054 26.9973C21.6587 29.2449 21.7979 31.5087 21.8659 33.8049C22.0278 39.4708 24.8152 43.468 29.9596 45.8515C30.1765 45.9517 30.4096 46.2331 30.4517 46.4659C30.756 48.0474 31.0085 49.6385 31.2902 51.2878C27.6512 51.9184 24.0512 52.5426 20.3734 53.1797C21.1439 48.8138 20.1079 45.0333 16.8802 42.0321C13.6362 39.0148 9.77394 38.3228 5.44545 39.4126Z" fill="#1AA39B"/>
<path d="M33.5207 11.7297C30.7365 11.7297 27.9523 11.733 25.1681 11.7297C23.8375 11.7297 23.2839 11.1896 23.2871 9.87018C23.2936 7.89745 23.258 5.92471 23.3518 3.95521C23.449 1.87253 25.3008 0.0647258 27.3922 0.0388539C31.4973 -0.01289 35.6057 -0.00965597 39.714 0.0356199C41.6079 0.0550238 43.8126 1.70436 43.8256 4.54703C43.8353 6.3613 43.8385 8.17557 43.8224 9.98984C43.8126 11.1476 43.2169 11.7233 42.0515 11.7265C39.209 11.733 36.3665 11.7297 33.5207 11.7297Z" fill="#1AA39B"/>
<path d="M15.8668 9.43671C17.9711 9.3591 19.8197 10.8597 20.2568 13.0717C20.6129 14.8666 20.914 16.6744 21.2086 18.4822C21.4158 19.7531 20.9431 20.3741 19.6838 20.5907C14.206 21.5351 8.72818 22.4794 3.25038 23.4237C1.75467 23.6824 1.19783 23.2717 0.942066 21.755C0.666881 20.125 0.378746 18.4951 0.093849 16.8652C-0.391771 14.0646 1.1007 11.9042 3.91082 11.4094C7.5983 10.7562 11.2923 10.1353 14.9862 9.50786C15.2711 9.45612 15.5722 9.45935 15.8668 9.43671Z" fill="#1AA39B"/>
<path d="M51.1973 43.9563C51.1973 38.0543 51.1973 32.2622 51.1973 26.3893C54.2437 26.5348 56.6653 27.8058 58.3585 30.2765C60.3982 33.2486 60.5438 36.4049 58.7503 39.5354C57.1121 42.3911 54.5221 43.7623 51.1973 43.9563Z" fill="#1AA39B"/>
<path d="M6.0022 42.362C8.51124 41.4985 10.8746 41.7152 13.1441 42.9182C16.7312 44.8198 18.5215 49.1631 17.3819 53.06C17.233 53.571 16.9675 53.6971 16.5078 53.6809C13.6394 53.5904 11.1757 52.5781 9.16844 50.4987C7.45582 48.7265 6.5817 46.5791 6.28386 44.1665C6.20939 43.5683 6.09932 42.9764 6.0022 42.362Z" fill="#1AA39B"/>
<path d="M24.7699 30.8814C27.9394 30.461 30.6524 31.3018 32.7503 33.6368C35.0619 36.211 35.6219 39.2542 34.4597 42.5076C33.8672 44.1699 34.1036 43.9888 32.4816 43.5845C27.9491 42.4494 24.825 38.4619 24.7699 33.7952C24.7602 32.8477 24.7699 31.9033 24.7699 30.8814Z" fill="#1AA39B"/>
<path d="M33.5175 46.8508C35.7157 46.8508 37.8524 46.8508 40.1154 46.8508C38.6165 49.0144 36.6999 50.2821 34.1876 50.7898C33.9578 49.4445 33.7376 48.138 33.5175 46.8508Z" fill="#1AA39B"/>
</g>
<defs>
<clipPath id="clip0">
<rect width="60" height="53.6842" fill="white"/>
</clipPath>
</defs>
</svg>
