<svg width="60" height="63" viewBox="0 0 60 63" fill="none" xmlns="http://www.w3.org/2000/svg">
<g clip-path="url(#clip0)">
<path d="M51.293 4.7002C51.4775 4.83922 51.6621 4.94734 51.8088 5.09298C54.3369 7.60197 56.865 10.1132 59.3841 12.631C60.1757 13.4232 60.2135 14.2551 59.4553 15.0032C55.373 19.0392 51.3219 23.1061 47.1751 27.0759C44.5359 29.6025 41.4542 31.5488 38.2213 33.2656C35.5465 34.6867 32.8583 36.0968 30.2769 37.6746C26.8594 39.7665 23.8377 42.3726 21.0073 45.1993C15.562 50.6388 10.1012 56.0628 4.64707 61.4934C3.55535 62.5791 2.81939 62.5769 1.72322 61.489C1.32967 61.0984 0.93167 60.7145 0.544789 60.3173C-0.177835 59.5714 -0.184505 58.7042 0.540342 57.976C6.29243 52.1901 12.0267 46.3887 17.8077 40.6315C22.3702 36.088 27.5998 32.4381 33.3786 29.5827C36.776 27.9034 40.0112 26.0012 42.895 23.5364C43.0617 23.3952 43.2218 23.2473 43.3953 23.0928C41.8811 21.5945 40.3914 20.1204 38.9395 18.6817C39.4353 17.9116 39.88 17.2231 40.3202 16.5412C41.93 18.1477 43.542 19.7586 45.2318 21.4445C45.6031 20.948 45.9078 20.5397 46.2457 20.0873C44.696 18.5493 42.9861 16.8568 41.2207 15.1047C41.8233 14.5508 42.3858 14.0344 42.9884 13.4784C44.7382 15.2172 46.4214 16.8899 48.1201 18.578C48.4781 18.194 48.8138 17.8299 49.2029 17.4129C47.6865 15.9101 46.1212 14.3566 44.5337 12.7832C45.2785 12.3419 45.99 11.9226 46.7393 11.4791C48.1668 12.9024 49.5987 14.3301 51.0417 15.7667C51.4242 15.3629 51.7621 15.0076 52.1001 14.6501C50.7727 13.346 49.3941 11.9911 48.0089 10.6317C48.6271 9.96753 49.1763 9.38056 49.7099 8.80682C51.0595 10.1463 52.4536 11.5321 53.8611 12.9289C54.2902 12.5074 54.6526 12.1499 55.0573 11.7527C53.6787 10.3956 52.3358 9.05176 50.9617 7.73879C50.6259 7.41882 50.5214 7.17167 50.7082 6.71489C50.9639 6.09481 51.0906 5.42399 51.293 4.7002Z" fill="#1AA39B"/>
<path d="M35.2929 13.229C35.3174 9.68729 36.9761 7.45192 39.7843 5.958C40.6959 5.47253 41.6209 5.00251 42.5792 4.62517C44.478 3.87931 45.9233 2.63695 46.9972 0.933399C47.0951 0.778932 47.2129 0.633291 47.3107 0.478824C47.5709 0.0683821 47.96 -0.0419517 48.4136 0.0110085C48.8649 0.0639687 49.1451 0.32877 49.2963 0.743625C50.1167 3.0143 49.8699 5.18346 48.647 7.25332C47.7688 8.74062 46.4747 9.78879 44.9917 10.6251C44.0289 11.1702 43.0328 11.6601 42.0789 12.2228C40.6092 13.09 39.7221 14.4714 38.9038 15.9035C38.6948 16.2698 38.5103 16.656 38.2791 17.0068C37.8077 17.724 36.9739 17.7262 36.5092 17.0068C35.7154 15.7733 35.2418 14.4383 35.2929 13.229Z" fill="#1AA39B"/>
</g>
<defs>
<clipPath id="clip0">
<rect width="60" height="62.3077" fill="white"/>
</clipPath>
</defs>
</svg>
